<?xml version="1.0" encoding="UTF-8"?>
<svg xmlns="http://www.w3.org/2000/svg" xmlns:xlink="http://www.w3.org/1999/xlink" width="24px" height="24px" viewBox="0 0 24 24" version="1.1">
<g id="surface1">
<path style=" stroke:none;fill-rule:nonzero;fill:rgb(0%,0%,0%);fill-opacity:1;" d="M 6.210938 6.347656 C 5.574219 5.820312 4.628906 5.90625 4.097656 6.539062 L 0.347656 11.039062 C -0.117188 11.59375 -0.117188 12.40625 0.347656 12.960938 L 4.097656 17.460938 C 4.441406 17.875 4.980469 18.074219 5.507812 17.984375 C 6.039062 17.894531 6.480469 17.523438 6.664062 17.019531 C 6.847656 16.515625 6.75 15.949219 6.402344 15.539062 L 3.453125 12 L 6.402344 8.460938 C 6.933594 7.824219 6.847656 6.878906 6.210938 6.347656 Z M 6.210938 6.347656 "/>
<path style=" stroke:none;fill-rule:nonzero;fill:rgb(0%,0%,0%);fill-opacity:1;" d="M 13.792969 3.03125 C 12.980469 2.875 12.199219 3.398438 12.03125 4.207031 L 9.03125 19.207031 C 8.949219 19.597656 9.03125 20.003906 9.253906 20.332031 C 9.472656 20.664062 9.816406 20.894531 10.207031 20.96875 C 10.304688 20.988281 10.402344 21 10.503906 21 C 11.21875 21 11.832031 20.492188 11.96875 19.792969 L 14.96875 4.792969 C 15.050781 4.402344 14.96875 3.996094 14.75 3.667969 C 14.527344 3.335938 14.183594 3.105469 13.792969 3.03125 Z M 13.792969 3.03125 "/>
<path style=" stroke:none;fill-rule:nonzero;fill:rgb(0%,0%,0%);fill-opacity:1;" d="M 23.652344 11.039062 L 19.902344 6.539062 C 19.558594 6.125 19.019531 5.925781 18.492188 6.015625 C 17.960938 6.105469 17.519531 6.476562 17.335938 6.980469 C 17.152344 7.484375 17.25 8.050781 17.597656 8.460938 L 20.546875 12 L 17.597656 15.539062 C 17.25 15.949219 17.152344 16.515625 17.335938 17.019531 C 17.519531 17.523438 17.960938 17.894531 18.492188 17.984375 C 19.019531 18.074219 19.558594 17.875 19.902344 17.460938 L 23.652344 12.960938 C 24.117188 12.40625 24.117188 11.59375 23.652344 11.039062 Z M 23.652344 11.039062 "/>
</g>
</svg>
