<?xml version="1.0" encoding="UTF-8"?>
<svg xmlns="http://www.w3.org/2000/svg" xmlns:xlink="http://www.w3.org/1999/xlink" width="24px" height="24px" viewBox="0 0 24 24" version="1.1">
<g id="surface1">
<path style=" stroke:none;fill-rule:nonzero;fill:rgb(0%,0%,0%);fill-opacity:1;" d="M 12 0.375 C 5.582031 0.375 0.375 5.582031 0.375 12 C 0.375 18.421875 5.582031 23.625 12 23.625 C 18.417969 23.625 23.625 18.421875 23.625 12 C 23.625 5.582031 18.417969 0.375 12 0.375 Z M 12 21.375 C 6.820312 21.375 2.625 17.183594 2.625 12 C 2.625 6.820312 6.820312 2.625 12 2.625 C 17.179688 2.625 21.375 6.820312 21.375 12 C 21.375 17.179688 17.183594 21.375 12 21.375 Z M 17.027344 9.414062 C 17.027344 12.554688 13.632812 12.605469 13.632812 13.765625 L 13.632812 14.0625 C 13.632812 14.375 13.378906 14.625 13.070312 14.625 L 10.929688 14.625 C 10.621094 14.625 10.367188 14.375 10.367188 14.0625 L 10.367188 13.65625 C 10.367188 11.980469 11.636719 11.3125 12.597656 10.773438 C 13.421875 10.3125 13.925781 9.996094 13.925781 9.386719 C 13.925781 8.578125 12.894531 8.042969 12.0625 8.042969 C 10.972656 8.042969 10.472656 8.554688 9.765625 9.445312 C 9.578125 9.6875 9.230469 9.730469 8.984375 9.546875 L 7.679688 8.558594 C 7.441406 8.375 7.386719 8.039062 7.558594 7.789062 C 8.664062 6.164062 10.074219 5.25 12.273438 5.25 C 14.570312 5.25 17.027344 7.046875 17.027344 9.414062 Z M 13.96875 17.25 C 13.96875 18.335938 13.085938 19.21875 12 19.21875 C 10.914062 19.21875 10.03125 18.335938 10.03125 17.25 C 10.03125 16.164062 10.914062 15.28125 12 15.28125 C 13.085938 15.28125 13.96875 16.164062 13.96875 17.25 Z M 13.96875 17.25 "/>
</g>
</svg>
